<mxfile host="app.diagrams.net" agent="Mozilla/5.0 (Windows NT 10.0; Win64; x64) AppleWebKit/537.36 (KHTML, like Gecko) Chrome/132.0.0.0 Safari/537.36" version="26.0.11">
  <diagram name="Страница — 1" id="zuykSe1Z1BBs6FxHsJYa">
    <mxGraphModel dx="1075" dy="471" grid="1" gridSize="10" guides="1" tooltips="1" connect="1" arrows="1" fold="1" page="1" pageScale="1" pageWidth="827" pageHeight="1169" math="0" shadow="0">
      <root>
        <mxCell id="0" />
        <mxCell id="1" parent="0" />
        <mxCell id="j0kFvS6inBZvrKuzUP51-4" style="edgeStyle=orthogonalEdgeStyle;rounded=0;orthogonalLoop=1;jettySize=auto;html=1;exitX=0.5;exitY=1;exitDx=0;exitDy=0;entryX=0.5;entryY=0;entryDx=0;entryDy=0;" edge="1" parent="1" source="j0kFvS6inBZvrKuzUP51-2" target="j0kFvS6inBZvrKuzUP51-3">
          <mxGeometry relative="1" as="geometry" />
        </mxCell>
        <mxCell id="j0kFvS6inBZvrKuzUP51-2" value="loop" style="shape=ellipse;html=1;dashed=0;whiteSpace=wrap;perimeter=ellipsePerimeter;" vertex="1" parent="1">
          <mxGeometry x="364" y="80" width="100" height="50" as="geometry" />
        </mxCell>
        <mxCell id="j0kFvS6inBZvrKuzUP51-6" style="edgeStyle=orthogonalEdgeStyle;rounded=0;orthogonalLoop=1;jettySize=auto;html=1;exitX=0.5;exitY=1;exitDx=0;exitDy=0;entryX=0.5;entryY=0;entryDx=0;entryDy=0;" edge="1" parent="1" source="j0kFvS6inBZvrKuzUP51-3" target="j0kFvS6inBZvrKuzUP51-5">
          <mxGeometry relative="1" as="geometry" />
        </mxCell>
        <mxCell id="j0kFvS6inBZvrKuzUP51-3" value="Выполнение обработки запросов web-сервера" style="rounded=0;whiteSpace=wrap;html=1;" vertex="1" parent="1">
          <mxGeometry x="354" y="170" width="120" height="60" as="geometry" />
        </mxCell>
        <mxCell id="j0kFvS6inBZvrKuzUP51-8" style="edgeStyle=orthogonalEdgeStyle;rounded=0;orthogonalLoop=1;jettySize=auto;html=1;exitX=0.5;exitY=1;exitDx=0;exitDy=0;entryX=0.5;entryY=0;entryDx=0;entryDy=0;" edge="1" parent="1" source="j0kFvS6inBZvrKuzUP51-5" target="j0kFvS6inBZvrKuzUP51-7">
          <mxGeometry relative="1" as="geometry" />
        </mxCell>
        <mxCell id="j0kFvS6inBZvrKuzUP51-5" value="distance (каждые 100 мс)" style="shape=process;whiteSpace=wrap;html=1;backgroundOutline=1;" vertex="1" parent="1">
          <mxGeometry x="354" y="270" width="120" height="60" as="geometry" />
        </mxCell>
        <mxCell id="j0kFvS6inBZvrKuzUP51-7" value="drive_car (каждые 100 мс)" style="shape=process;whiteSpace=wrap;html=1;backgroundOutline=1;" vertex="1" parent="1">
          <mxGeometry x="354" y="380" width="120" height="60" as="geometry" />
        </mxCell>
        <mxCell id="j0kFvS6inBZvrKuzUP51-11" value="" style="endArrow=none;html=1;rounded=0;" edge="1" parent="1">
          <mxGeometry width="50" height="50" relative="1" as="geometry">
            <mxPoint x="413" y="470" as="sourcePoint" />
            <mxPoint x="413" y="440" as="targetPoint" />
          </mxGeometry>
        </mxCell>
        <mxCell id="j0kFvS6inBZvrKuzUP51-12" value="" style="endArrow=none;html=1;rounded=0;" edge="1" parent="1">
          <mxGeometry width="50" height="50" relative="1" as="geometry">
            <mxPoint x="310" y="470" as="sourcePoint" />
            <mxPoint x="414" y="470" as="targetPoint" />
          </mxGeometry>
        </mxCell>
        <mxCell id="j0kFvS6inBZvrKuzUP51-14" value="" style="endArrow=classic;html=1;rounded=0;" edge="1" parent="1">
          <mxGeometry width="50" height="50" relative="1" as="geometry">
            <mxPoint x="310" y="105" as="sourcePoint" />
            <mxPoint x="364" y="104.5" as="targetPoint" />
          </mxGeometry>
        </mxCell>
        <mxCell id="j0kFvS6inBZvrKuzUP51-16" value="" style="endArrow=none;html=1;rounded=0;" edge="1" parent="1">
          <mxGeometry width="50" height="50" relative="1" as="geometry">
            <mxPoint x="310" y="470" as="sourcePoint" />
            <mxPoint x="310" y="105" as="targetPoint" />
          </mxGeometry>
        </mxCell>
      </root>
    </mxGraphModel>
  </diagram>
</mxfile>
